<svg xmlns="http://www.w3.org/2000/svg" viewBox="0 0 512 512" width="512" height="512"><defs>
  <filter id="rough" x="-6%" y="-6%" width="112%" height="112%">
    <feTurbulence type="fractalNoise" baseFrequency="0.02 0.03" numOctaves="3" seed="37" result="n"/>
    <feDisplacementMap in="SourceGraphic" in2="n" scale="3.2" xChannelSelector="R" yChannelSelector="G"/>
  </filter>
  <pattern id="hatch" width="8" height="8" patternTransform="rotate(40)" patternUnits="userSpaceOnUse">
    <line x1="0" y1="0" x2="0" y2="8" stroke="#000" stroke-opacity="0.16" stroke-width="2"/>
  </pattern>
  <clipPath id="med"><circle cx="256" cy="256" r="196"/></clipPath>
</defs>
    <g clip-path="url(#med)">
      <circle cx="256" cy="256" r="196" fill="#14544e"/>
      <line x1="256" y1="256" x2="466" y2="256" stroke="#f7f0de" stroke-opacity="0.10" stroke-width="9"/><line x1="256" y1="256" x2="461" y2="300" stroke="#f7f0de" stroke-opacity="0.10" stroke-width="9"/><line x1="256" y1="256" x2="448" y2="341" stroke="#f7f0de" stroke-opacity="0.10" stroke-width="9"/><line x1="256" y1="256" x2="426" y2="379" stroke="#f7f0de" stroke-opacity="0.10" stroke-width="9"/><line x1="256" y1="256" x2="397" y2="412" stroke="#f7f0de" stroke-opacity="0.10" stroke-width="9"/><line x1="256" y1="256" x2="361" y2="438" stroke="#f7f0de" stroke-opacity="0.10" stroke-width="9"/><line x1="256" y1="256" x2="321" y2="456" stroke="#f7f0de" stroke-opacity="0.10" stroke-width="9"/><line x1="256" y1="256" x2="278" y2="465" stroke="#f7f0de" stroke-opacity="0.10" stroke-width="9"/><line x1="256" y1="256" x2="234" y2="465" stroke="#f7f0de" stroke-opacity="0.10" stroke-width="9"/><line x1="256" y1="256" x2="191" y2="456" stroke="#f7f0de" stroke-opacity="0.10" stroke-width="9"/><line x1="256" y1="256" x2="151" y2="438" stroke="#f7f0de" stroke-opacity="0.10" stroke-width="9"/><line x1="256" y1="256" x2="115" y2="412" stroke="#f7f0de" stroke-opacity="0.10" stroke-width="9"/><line x1="256" y1="256" x2="86" y2="379" stroke="#f7f0de" stroke-opacity="0.10" stroke-width="9"/><line x1="256" y1="256" x2="64" y2="341" stroke="#f7f0de" stroke-opacity="0.10" stroke-width="9"/><line x1="256" y1="256" x2="51" y2="300" stroke="#f7f0de" stroke-opacity="0.10" stroke-width="9"/><line x1="256" y1="256" x2="46" y2="256" stroke="#f7f0de" stroke-opacity="0.10" stroke-width="9"/><line x1="256" y1="256" x2="51" y2="212" stroke="#f7f0de" stroke-opacity="0.10" stroke-width="9"/><line x1="256" y1="256" x2="64" y2="171" stroke="#f7f0de" stroke-opacity="0.10" stroke-width="9"/><line x1="256" y1="256" x2="86" y2="133" stroke="#f7f0de" stroke-opacity="0.10" stroke-width="9"/><line x1="256" y1="256" x2="115" y2="100" stroke="#f7f0de" stroke-opacity="0.10" stroke-width="9"/><line x1="256" y1="256" x2="151" y2="74" stroke="#f7f0de" stroke-opacity="0.10" stroke-width="9"/><line x1="256" y1="256" x2="191" y2="56" stroke="#f7f0de" stroke-opacity="0.10" stroke-width="9"/><line x1="256" y1="256" x2="234" y2="47" stroke="#f7f0de" stroke-opacity="0.10" stroke-width="9"/><line x1="256" y1="256" x2="278" y2="47" stroke="#f7f0de" stroke-opacity="0.10" stroke-width="9"/><line x1="256" y1="256" x2="321" y2="56" stroke="#f7f0de" stroke-opacity="0.10" stroke-width="9"/><line x1="256" y1="256" x2="361" y2="74" stroke="#f7f0de" stroke-opacity="0.10" stroke-width="9"/><line x1="256" y1="256" x2="397" y2="100" stroke="#f7f0de" stroke-opacity="0.10" stroke-width="9"/><line x1="256" y1="256" x2="426" y2="133" stroke="#f7f0de" stroke-opacity="0.10" stroke-width="9"/><line x1="256" y1="256" x2="448" y2="171" stroke="#f7f0de" stroke-opacity="0.10" stroke-width="9"/><line x1="256" y1="256" x2="461" y2="212" stroke="#f7f0de" stroke-opacity="0.10" stroke-width="9"/>
      <circle cx="256" cy="256" r="196" fill="url(#hatch)"/>
      <g filter="url(#rough)">
        <g fill="#241b0f"><path d="M198,130 C206,94 232,72 266,72 C318,72 350,118 356,196 C362,242 360,278 354,300 L314,300 C324,262 324,220 318,192 C310,130 300,88 266,88 C234,88 212,104 208,134 Z"/></g>
        <path d="M266,80 C226,82 204,104 198,132 Q194,144 202,152 Q208,158 200,166 Q162,172 160,198 Q172,200 190,203 Q186,210 189,215 Q183,220 188,227 Q188,238 184,250 Q192,274 228,290 L260,297 L258,300 L332,300 C342,258 348,224 346,196 C342,132 314,84 266,80 Z" fill="#241b0f"/>
        <g fill="#241b0f"><path d="M186,232 C180,254 186,278 202,290 C216,298 230,290 230,276 C224,258 206,242 194,232 Z"/></g>
        <g fill="#241b0f"><path d="M196,140 C198,92 228,58 268,58 C324,58 362,104 368,180 C372,232 366,272 358,300 L318,300 C330,262 334,214 330,172 C324,110 302,76 266,76 C232,76 212,102 210,144 Z"/><path d="M210,144 C226,132 244,126 262,126" fill="none" stroke="#f7f0de" stroke-width="4"/></g>
        <g fill="#241b0f"><path d="M262,300 C204,310 162,348 146,400 L398,400 C382,346 342,308 288,300 Z"/><path d="M270,304 L250,400 M280,304 L306,400" fill="none" stroke="#f7f0de" stroke-width="3"/></g>
      </g>
    </g>
    <g filter="url(#rough)" fill="none">
      <circle cx="256" cy="256" r="196" stroke="#b0872f" stroke-width="9"/>
      <circle cx="256" cy="256" r="182" stroke="#b0872f" stroke-width="2.5" opacity="0.8"/>
      <circle cx="256" cy="256" r="204" stroke="#241b0f" stroke-width="3" opacity="0.55"/>
    </g>
    <g transform="translate(256,436)" fill="#b0872f" stroke="#b0872f"><circle cx="0" cy="0" r="9" fill="none" stroke-width="3"/><path d="M0,-6 l3,6 l-6,0 Z M0,6 l3,-6 l-6,0 Z"/><line x1="12" y1="0" x2="19" y2="0" stroke-width="2.5"/><line x1="8" y1="8" x2="13" y2="13" stroke-width="2.5"/><line x1="0" y1="12" x2="0" y2="19" stroke-width="2.5"/><line x1="-8" y1="8" x2="-13" y2="13" stroke-width="2.5"/><line x1="-12" y1="0" x2="-19" y2="0" stroke-width="2.5"/><line x1="-8" y1="-8" x2="-13" y2="-13" stroke-width="2.5"/><line x1="-0" y1="-12" x2="-0" y2="-19" stroke-width="2.5"/><line x1="8" y1="-8" x2="13" y2="-13" stroke-width="2.5"/></g></svg>