<svg xmlns="http://www.w3.org/2000/svg" viewBox="0 0 512 512" width="512" height="512"><defs>
  <filter id="rough" x="-6%" y="-6%" width="112%" height="112%">
    <feTurbulence type="fractalNoise" baseFrequency="0.02 0.03" numOctaves="3" seed="31" result="n"/>
    <feDisplacementMap in="SourceGraphic" in2="n" scale="3.2" xChannelSelector="R" yChannelSelector="G"/>
  </filter>
  <pattern id="hatch" width="8" height="8" patternTransform="rotate(40)" patternUnits="userSpaceOnUse">
    <line x1="0" y1="0" x2="0" y2="8" stroke="#000" stroke-opacity="0.16" stroke-width="2"/>
  </pattern>
  <clipPath id="med"><circle cx="256" cy="256" r="196"/></clipPath>
</defs><rect width="512" height="512" fill="#f7f0de"/>
    <g clip-path="url(#med)">
      <circle cx="256" cy="256" r="196" fill="#2f5f43"/>
      <line x1="256" y1="256" x2="466" y2="256" stroke="#f7f0de" stroke-opacity="0.10" stroke-width="9"/><line x1="256" y1="256" x2="461" y2="300" stroke="#f7f0de" stroke-opacity="0.10" stroke-width="9"/><line x1="256" y1="256" x2="448" y2="341" stroke="#f7f0de" stroke-opacity="0.10" stroke-width="9"/><line x1="256" y1="256" x2="426" y2="379" stroke="#f7f0de" stroke-opacity="0.10" stroke-width="9"/><line x1="256" y1="256" x2="397" y2="412" stroke="#f7f0de" stroke-opacity="0.10" stroke-width="9"/><line x1="256" y1="256" x2="361" y2="438" stroke="#f7f0de" stroke-opacity="0.10" stroke-width="9"/><line x1="256" y1="256" x2="321" y2="456" stroke="#f7f0de" stroke-opacity="0.10" stroke-width="9"/><line x1="256" y1="256" x2="278" y2="465" stroke="#f7f0de" stroke-opacity="0.10" stroke-width="9"/><line x1="256" y1="256" x2="234" y2="465" stroke="#f7f0de" stroke-opacity="0.10" stroke-width="9"/><line x1="256" y1="256" x2="191" y2="456" stroke="#f7f0de" stroke-opacity="0.10" stroke-width="9"/><line x1="256" y1="256" x2="151" y2="438" stroke="#f7f0de" stroke-opacity="0.10" stroke-width="9"/><line x1="256" y1="256" x2="115" y2="412" stroke="#f7f0de" stroke-opacity="0.10" stroke-width="9"/><line x1="256" y1="256" x2="86" y2="379" stroke="#f7f0de" stroke-opacity="0.10" stroke-width="9"/><line x1="256" y1="256" x2="64" y2="341" stroke="#f7f0de" stroke-opacity="0.10" stroke-width="9"/><line x1="256" y1="256" x2="51" y2="300" stroke="#f7f0de" stroke-opacity="0.10" stroke-width="9"/><line x1="256" y1="256" x2="46" y2="256" stroke="#f7f0de" stroke-opacity="0.10" stroke-width="9"/><line x1="256" y1="256" x2="51" y2="212" stroke="#f7f0de" stroke-opacity="0.10" stroke-width="9"/><line x1="256" y1="256" x2="64" y2="171" stroke="#f7f0de" stroke-opacity="0.10" stroke-width="9"/><line x1="256" y1="256" x2="86" y2="133" stroke="#f7f0de" stroke-opacity="0.10" stroke-width="9"/><line x1="256" y1="256" x2="115" y2="100" stroke="#f7f0de" stroke-opacity="0.10" stroke-width="9"/><line x1="256" y1="256" x2="151" y2="74" stroke="#f7f0de" stroke-opacity="0.10" stroke-width="9"/><line x1="256" y1="256" x2="191" y2="56" stroke="#f7f0de" stroke-opacity="0.10" stroke-width="9"/><line x1="256" y1="256" x2="234" y2="47" stroke="#f7f0de" stroke-opacity="0.10" stroke-width="9"/><line x1="256" y1="256" x2="278" y2="47" stroke="#f7f0de" stroke-opacity="0.10" stroke-width="9"/><line x1="256" y1="256" x2="321" y2="56" stroke="#f7f0de" stroke-opacity="0.10" stroke-width="9"/><line x1="256" y1="256" x2="361" y2="74" stroke="#f7f0de" stroke-opacity="0.10" stroke-width="9"/><line x1="256" y1="256" x2="397" y2="100" stroke="#f7f0de" stroke-opacity="0.10" stroke-width="9"/><line x1="256" y1="256" x2="426" y2="133" stroke="#f7f0de" stroke-opacity="0.10" stroke-width="9"/><line x1="256" y1="256" x2="448" y2="171" stroke="#f7f0de" stroke-opacity="0.10" stroke-width="9"/><line x1="256" y1="256" x2="461" y2="212" stroke="#f7f0de" stroke-opacity="0.10" stroke-width="9"/>
      <circle cx="256" cy="256" r="196" fill="url(#hatch)"/>
      <g filter="url(#rough)">
        <g fill="#241b0f"><path d="M198,130 C206,94 232,72 266,72 C318,72 350,118 356,196 C362,242 360,278 354,300 L314,300 C324,262 324,220 318,192 C310,130 300,88 266,88 C234,88 212,104 208,134 Z"/></g>
        <path d="M266,80 C226,82 204,104 198,132 Q194,144 188,152 Q194,158 186,166 Q172,182 176,192 Q184,196 190,202 Q186,210 189,215 Q183,220 188,227 Q194,236 196,248 Q206,274 240,289 L264,296 L258,300 L332,300 C342,258 348,224 346,196 C342,132 314,84 266,80 Z" fill="#241b0f"/>
        <g fill="#241b0f"><path d="M188,224 C182,258 196,290 228,302 C258,312 292,300 302,272 C310,246 308,222 304,206 C300,244 282,272 250,280 C220,286 198,262 196,224 Z"/></g>
        <g fill="#241b0f"></g>
        <g fill="#241b0f"><path d="M262,300 C202,308 160,344 142,400 L402,400 C386,344 344,308 286,300 Z"/><path d="M180,400 C186,362 210,332 250,318" fill="none" stroke="#f7f0de" stroke-width="3"/><rect x="292" y="336" width="26" height="14" rx="3" fill="#b0872f"/></g>
      </g>
    </g>
    <g filter="url(#rough)" fill="none">
      <circle cx="256" cy="256" r="196" stroke="#b0872f" stroke-width="9"/>
      <circle cx="256" cy="256" r="182" stroke="#b0872f" stroke-width="2.5" opacity="0.8"/>
      <circle cx="256" cy="256" r="204" stroke="#241b0f" stroke-width="3" opacity="0.55"/>
    </g>
    <g transform="translate(256,436)" fill="#b0872f" stroke="#b0872f"><path d="M-12,-16 C4,-4 4,10 -12,20" fill="none" stroke-width="4"/><path d="M-12,-16 L-12,20" stroke-width="2"/><path d="M-12,2 L16,2" stroke-width="3"/><path d="M10,-2 l8,4 l-8,4 Z"/></g></svg>